# 3ds Max Wavefront OBJ Exporter v0.97b - (c)2007 guruware
# File Created: 04.11.2017 14:42:23

mtllib STRAP.mtl

#
# object hat_band
#

v  -1.0561 3.5823 0.3070
v  -1.0768 3.6003 0.3058
v  -1.0082 3.6447 0.5302
v  -1.0731 3.5028 0.0428
v  -1.0583 3.4971 0.0422
v  -0.9911 3.6238 0.5206
v  -0.7352 3.6525 0.8216
v  -1.0592 3.5099 0.5539
v  -1.0717 3.5228 0.5622
v  -1.1361 3.4739 0.3567
v  -0.7692 3.5308 0.8556
v  -1.1452 3.4807 0.3526
v  -1.1116 3.3724 0.0894
v  -0.7406 3.6624 0.8229
v  -1.0968 3.3630 0.0869
v  -0.7776 3.5384 0.8572
# 16 vertices

vn 0.6335 -0.2957 -0.7150
vn 0.6372 -0.2959 -0.7117
vn 0.5919 -0.4327 -0.6800
vn 0.3508 -0.2905 -0.8903
vn 0.3324 -0.2913 -0.8970
vn 0.5982 -0.4206 -0.6821
vn 0.6464 -0.6176 -0.4480
vn -0.5040 0.4172 0.7563
vn -0.5010 0.4257 0.7535
vn -0.6461 0.3029 0.7006
vn -0.5059 0.5399 0.6727
vn -0.6489 0.2795 0.7076
vn -0.4843 0.2715 0.8317
vn -0.8936 -0.0289 -0.4479
vn -0.8747 -0.0465 -0.4825
vn -0.7819 0.3690 -0.5025
vn -0.9429 -0.1575 -0.2935
vn -0.9634 -0.1049 -0.2467
vn 0.7594 -0.3369 0.5567
vn 0.8548 0.0497 0.5166
vn 0.7547 -0.3514 0.5541
vn 0.8165 0.0620 0.5740
vn 0.6817 -0.6098 0.4043
vn 0.6831 -0.6313 0.3671
vn -0.7687 0.3939 -0.5038
vn -0.6650 0.6298 -0.4014
vn 0.9353 0.1475 0.3216
vn 0.9648 0.0734 0.2526
vn 0.6512 -0.6217 -0.4353
vn -0.4808 0.2725 0.8334
vn -0.6658 0.6439 -0.3769
vn -0.5080 0.5420 0.6695
# 32 vertex normals

vt 0.1459 0.8964 0.0000
vt 0.1460 0.8776 0.0000
vt 0.2149 0.8776 0.0000
vt 0.1022 0.8776 0.0000
vt 0.1021 0.8964 0.0000
vt 0.2148 0.8964 0.0000
vt 0.2729 0.8964 0.0000
vt 0.1586 0.9845 0.0000
vt 0.1588 0.9123 0.0000
vt 0.2896 0.9123 0.0000
vt 0.0719 0.9123 0.0000
vt 0.0724 0.9845 0.0000
vt 0.2894 0.9845 0.0000
vt 0.4028 0.9845 0.0000
vt 0.4030 0.9123 0.0000
vt 0.2729 0.8776 0.0000
# 16 texture coords

o hat_band
g hat_band
usemtl hat
s off
f 1/1/1 2/2/2 3/3/3 
f 4/4/4 2/2/2 1/1/1 
f 5/5/5 4/4/4 1/1/1 
f 6/6/6 3/3/3 7/7/7 
f 1/1/1 3/3/3 6/6/6 
f 8/6/8 9/3/9 10/1/10 
f 11/7/11 9/3/9 8/6/8 
f 12/2/12 10/1/10 9/3/9 
f 13/4/13 10/1/10 12/2/12 
f 2/8/14 12/9/15 9/10/16 
f 13/11/17 12/9/15 2/8/14 
f 4/12/18 13/11/17 2/8/14 
f 8/10/19 1/8/20 6/13/21 
f 10/9/22 1/8/20 8/10/19 
f 7/14/23 8/10/19 6/13/21 
f 11/15/24 8/10/19 7/14/23 
f 3/13/25 9/10/16 14/14/26 
f 2/8/14 9/10/16 3/13/25 
f 15/11/27 1/8/20 10/9/22 
f 5/12/28 1/8/20 15/11/27 
f 3/3/3 14/16/29 7/7/7 
f 13/4/13 15/5/30 10/1/10 
f 9/10/16 16/15/31 14/14/26 
f 11/7/11 16/16/32 9/3/9 
# 0 polygons - 24 triangles

