# 3ds Max Wavefront OBJ Exporter v0.97b - (c)2007 guruware
# File Created: 30.11.2017 19:41:38

mtllib CapeYay.mtl

#
# object polygon127
#

v  -1.3744 5.1391 -1.0677
v  -2.8255 4.5727 -0.3636
v  -1.8419 4.5362 -1.1711
v  -2.3869 5.1667 -0.2463
v  -1.9308 5.7139 -0.1536
v  -1.9460 5.6164 0.5269
v  -1.2999 6.1569 -0.1896
v  -2.2056 4.8838 0.4736
v  -0.7848 5.5425 -0.8657
v  -1.4384 6.1389 0.3386
v  -1.2629 6.2933 0.2153
v  -1.0792 6.3704 -0.1859
v  -2.6545 4.2159 0.4820
v  -3.0179 3.7612 -0.3710
v  -2.9170 3.3561 0.5195
v  -0.6136 6.2375 -0.5956
v  -0.6340 6.0872 -0.6399
v  -1.1781 6.3554 0.1571
v  -0.1856 6.2781 -1.1322
v  -0.0463 5.5359 -1.1602
v  0.6290 5.5278 -1.1261
v  -0.0956 6.4659 -0.8865
v  0.3482 6.5247 -1.0381
v  0.4859 6.2056 -1.1057
v  0.2719 6.5730 -0.9275
v  0.6886 4.1068 -1.4492
v  -2.1155 3.8291 -1.5102
v  0.3100 4.7313 -1.3083
v  0.3143 3.5680 -1.7582
v  -2.4833 3.0448 -1.8392
v  1.4712 4.2822 -0.9941
v  1.0241 4.9322 -0.9744
v  1.9918 3.5955 -1.1179
v  2.6407 2.9570 -1.2211
v  -0.5399 2.0867 -2.7794
v  3.7620 2.0158 -1.2631
v  -0.1714 2.9138 -2.3344
v  -3.2075 1.6274 -2.2816
v  -3.8730 1.9743 -0.6433
v  -3.1917 2.3738 0.3021
v  -3.7522 1.0417 -0.0228
v  -3.2995 2.9476 -0.4775
# 42 vertices

vn 0.2858 -0.4621 0.8395
vn 0.8537 -0.5174 0.0591
vn 0.3279 -0.4701 0.8194
vn 0.7837 -0.5871 0.2029
vn 0.6193 -0.7258 0.2994
vn 0.7850 -0.6057 -0.1303
vn 0.6220 -0.6915 0.3673
vn 0.8317 -0.4174 -0.3661
vn 0.3261 -0.6542 0.6824
vn 0.7300 -0.6623 0.1689
vn 0.6945 -0.7003 0.1652
vn 0.6782 -0.7142 0.1734
vn 0.8750 -0.3718 -0.3100
vn 0.9312 -0.2543 -0.2612
vn 0.9259 -0.2931 -0.2382
vn 0.5110 -0.3063 0.8031
vn 0.4815 -0.5102 0.7126
vn 0.6507 -0.7433 0.1552
vn 0.4689 -0.4458 0.7625
vn 0.7460 -0.4205 0.5163
vn 0.3705 0.0345 0.9282
vn -0.0510 -0.0472 0.9976
vn 0.7615 -0.2763 0.5864
vn 0.5424 -0.7515 0.3757
vn 0.2831 -0.8092 0.5148
vn -0.0635 -0.2329 0.9704
vn -0.0437 -0.0393 0.9983
vn 0.2901 -0.7878 0.5434
vn 0.2569 -0.7061 0.6599
vn -0.3252 -0.2544 0.9108
vn 0.2673 -0.4988 0.8245
vn -0.0846 -0.1993 0.9763
vn 0.1085 -0.1332 0.9851
vn -0.0519 -0.2029 0.9778
vn 0.0495 -0.4059 0.9126
vn 0.0322 -0.5140 0.8572
vn -0.3768 -0.3462 0.8591
vn -0.3272 -0.4440 0.8342
vn -0.3921 -0.2289 0.8910
vn -0.4134 -0.0425 0.9096
vn -0.3196 -0.4434 0.8374
vn -0.3096 -0.4071 0.8593
vn -0.3443 -0.3212 0.8822
vn -0.1331 -0.4551 0.8804
vn -0.3208 -0.4598 0.8281
vn 0.1109 -0.7020 0.7035
vn 0.1741 -0.3734 0.9112
vn 0.2434 -0.5413 0.8048
vn 0.8331 -0.2276 -0.5042
vn 0.8135 -0.4089 -0.4135
vn 0.7517 -0.5134 0.4140
vn 0.9393 -0.2011 -0.2780
vn 0.9273 -0.2899 -0.2369
vn 0.8162 -0.3433 0.4647
vn 0.6794 -0.5310 0.5065
vn 0.7752 -0.1893 0.6027
# 56 vertex normals

vt 0.0086 0.6290 0.0000
vt 0.1980 0.5433 0.0000
vt 0.0064 0.5433 0.0000
vt 0.1908 0.6290 0.0000
vt 0.1805 0.7092 0.0000
vt 0.3487 0.7092 0.0000
vt 0.1696 0.8321 0.0000
vt 0.3723 0.6290 0.0000
vt 0.0086 0.7092 0.0000
vt 0.3027 0.8321 0.0000
vt 0.2756 0.9236 0.0000
vt 0.1597 0.8935 0.0000
vt 0.3856 0.5433 0.0000
vt 0.2043 0.4947 0.0000
vt 0.4119 0.4947 0.0000
vt 0.0086 0.9194 0.0000
vt 0.0086 0.8321 0.0000
vt 0.1498 0.9432 0.0000
vt 0.2434 0.9872 0.0000
vt 0.0064 0.4947 0.0000
vt 0.0064 0.3413 0.0000
vt 0.4329 0.3413 0.0000
vt 0.2363 0.0918 0.0000
vt 0.4841 0.0487 0.0000
vt 0.2139 0.3413 0.0000
vt 0.0064 0.0070 0.0000
# 26 texture coords

o polygon127
g polygon127
usemtl mannto
s off
f 1/1/1 2/2/2 3/3/3 
f 4/4/4 2/2/2 1/1/1 
f 5/5/5 4/4/4 1/1/1 
f 6/6/6 4/4/4 5/5/5 
f 7/7/7 6/6/6 5/5/5 
f 4/4/4 8/8/8 2/2/2 
f 6/6/6 8/8/8 4/4/4 
f 9/9/9 5/5/5 1/1/1 
f 7/7/7 5/5/5 9/9/9 
f 7/7/7 10/10/10 6/6/6 
f 11/11/11 10/10/10 7/7/7 
f 12/12/12 11/11/11 7/7/7 
f 13/13/13 2/2/2 8/8/8 
f 14/14/14 2/2/2 13/13/13 
f 15/15/15 14/14/14 13/13/13 
f 16/16/16 7/7/16 17/17/16 
f 12/12/17 7/7/17 16/16/17 
f 12/18/12 18/19/18 11/11/11 
f 9/9/19 17/17/19 7/7/19 
f 19/7/20 17/17/20 9/9/20 
f 20/5/21 19/7/21 9/9/21 
f 21/6/22 19/7/22 20/5/22 
f 19/7/23 16/16/23 17/17/23 
f 22/12/24 16/16/24 19/7/24 
f 23/11/25 22/12/25 19/7/25 
f 19/7/26 24/10/26 23/11/26 
f 21/6/27 24/10/27 19/7/27 
f 22/18/28 23/11/28 25/19/28 
f 1/1/29 20/5/29 9/9/29 
f 26/2/30 3/3/3 27/20/31 
f 1/1/1 3/3/3 26/2/30 
f 28/4/32 1/1/1 26/2/30 
f 20/5/33 1/1/1 28/4/32 
f 21/6/34 20/5/34 28/4/34 
f 29/14/35 27/20/35 30/21/35 
f 26/2/36 27/20/36 29/14/36 
f 31/13/37 26/2/30 29/14/38 
f 32/8/39 26/2/30 31/13/37 
f 32/8/39 28/4/32 26/2/30 
f 21/6/40 28/4/32 32/8/39 
f 33/15/41 31/13/37 29/14/38 
f 34/22/42 35/23/42 36/24/42 
f 37/25/43 35/23/43 34/22/43 
f 33/15/41 37/25/44 34/22/45 
f 29/14/38 37/25/44 33/15/41 
f 30/21/46 37/25/46 29/14/46 
f 38/26/47 37/25/44 30/21/47 
f 35/23/48 37/25/48 38/26/48 
f 39/23/49 40/22/49 41/24/49 
f 42/25/50 40/22/50 39/23/50 
f 38/26/51 42/25/51 39/23/51 
f 30/21/51 42/25/51 38/26/51 
f 42/25/52 15/15/52 40/22/52 
f 14/14/53 15/15/53 42/25/53 
f 30/21/54 14/14/54 42/25/54 
f 27/20/55 14/14/55 30/21/55 
f 2/2/2 27/20/31 3/3/3 
f 14/14/56 27/20/56 2/2/56 
# 0 polygons - 58 triangles

