#Wavefront OBJ file, generated by BrawlCrate v0.24.1.0

#Vertices
v 0.9627724 11.62486 -1.250811
v 1.4246 11.20698 -0.842071
v 0.8314475 11.43023 -1.514232
v 1.46514 10.74689 -1.30136
v 0.9491569 11.34294 -1.915264
v 1.112788 11.65678 -2.247891
v 1.132529 11.89143 -2.205507
v 0.8234601 11.88056 -1.962281
v 1.185843 12.15319 -2.249867
v 0.8034154 12.18062 -1.98199
v 0.8998658 13.03998 -1.763147
v 0.8307095 11.53776 -2.002035
v 1.236444 11.36911 -2.126812
v 0.9170619 11.81915 -1.275829
v 0.7675405 11.76444 -1.593784
v -3.639088 12.47875 1.775215
v -3.505476 12.32024 1.901469
v -3.269931 12.45371 1.597332
v -2.810868 11.90477 2.00264
v -2.468168 12.3667 1.696935
v 0.6554502 12.16799 -1.554873
v 0.9002828 12.02892 -1.168037
v 1.522042 11.78807 -2.106434
v 1.104125 12.81008 -0.8750843
v 0.7230403 13.0193 -1.408783
v -3.049911 13.10858 1.807921
v -3.061895 12.70601 1.594386
v -2.293993 12.85909 1.935901
v 1.801285 12.14873 -1.5466
v 1.30699 12.09416 -1.09742
v 2.082474 12.75726 -1.316624
v 1.498 12.71406 -0.8018169
v 1.206199 11.99355 -1.367157
v 1.561027 11.8379 -1.673725
v 1.555704 12.00759 -1.626095
v 1.666204 12.07795 -2.099085
v 1.350134 13.02837 -2.082057
v 1.889817 12.92278 -1.886839
v -2.946529 12.03897 2.608948
v 1.255075 11.8424 -1.3575
v 1.74228 11.68525 -0.8270144
v 2.160449 11.7832 -1.277687
v 1.683651 11.5553 -2.090745
v 2.177405 11.30207 -1.725298
v 1.897499 10.86558 -1.751916
v -2.428717 13.53073 1.042761
v -2.678952 13.80211 1.187656
v -2.915664 13.01898 1.282896
v -3.229597 13.34098 1.377974
v -2.644184 12.8841 1.960657
v -1.95482 13.201 1.89648
v -2.787139 12.74859 1.577153
v -2.033228 13.19093 1.49216
v -3.048355 13.00496 1.894116
v -2.884457 13.27952 2.429488
v -2.253563 13.70897 2.407594
v -3.076174 12.75581 1.594695
v -3.553066 12.84554 1.626769
v -3.310339 12.72941 1.521752
v -3.591901 13.29358 1.883819
v -2.86905 14.11542 1.600325
v -3.352656 13.44412 2.311393
v -2.66942 14.0956 2.148296
v -2.436993 12.97191 2.531206
v -2.782501 12.488 2.811533
v -3.359743 12.77507 2.584284
v -3.537987 12.41378 2.246399
v -3.725819 12.62304 2.118079
v -3.168128 13.1667 2.228468
v -3.189587 13.19049 2.233046
v -3.531319 13.02462 2.369256
v -3.659182 13.00517 1.963392

#Normals
vn -1.397907 0.2815739 2.074911
vn -1.671953 -0.3299498 1.883429
vn -2.12227 -0.5916954 0.9280773
vn -1.422002 -2.104573 0.01696647
vn -1.339862 -1.356547 -0.7299538
vn -0.04627114 -0.2076158 -2.239734
vn -0.1412529 -0.3099466 -2.242561
vn -1.841083 -0.3851005 -0.9141652
vn -0.2008537 -0.2139177 -2.374799
vn -1.799274 -0.2190411 -1.377587
vn -1.971008 0.4649669 -1.533146
vn -1.841083 -0.3851005 -0.9141652
vn -1.673098 -0.7009317 -0.8604528
vn -0.04627114 -0.2076158 -2.239734
vn -1.339862 -1.356547 -0.7299538
vn 0.1140146 -0.8606445 -2.081244
vn -1.187356 -0.3572814 2.17537
vn -1.397907 0.2815739 2.074911
vn -2.090161 -0.6725279 0.8800611
vn -2.12227 -0.5916954 0.9280773
vn -1.673098 -0.7009317 -0.8604528
vn -1.339862 -1.356547 -0.7299538
vn -1.043698 -1.493846 -1.073266
vn -0.7842574 -2.092877 -0.6352562
vn -0.1289045 -1.243886 -2.195172
vn -0.7109375 -2.167047 -1.118067
vn 0.637257 -0.388754 -2.427833
vn -2.090161 -0.6725279 0.8800611
vn -1.841083 -0.3851005 -0.9141652
vn -2.340966 -0.4549136 0.3985369
vn -1.799274 -0.2190411 -1.377587
vn -1.971008 0.4649669 -1.533146
vn -2.090161 -0.6725279 0.8800611
vn -2.340966 -0.4549136 0.3985369
vn -1.187356 -0.3572814 2.17537
vn -1.364761 -0.6950386 1.996944
vn 0.1140146 -0.8606445 -2.081244
vn 1.874225 0.06968636 -1.695149
vn -0.04627114 -0.2076158 -2.239734
vn -0.1412529 -0.3099466 -2.242561
vn -1.443666 -0.400795 2.051069
vn -2.340966 -0.4549136 0.3985369
vn -2.536004 0.06408726 0.1271667
vn -1.971008 0.4649669 -1.533146
vn 1.085562 2.098238 -0.9330357
vn 0.9828883 -0.1018752 -2.033967
vn 1.055364 1.886944 -1.333137
vn 0.637257 -0.388754 -2.427833
vn 2.117466 -0.8206809 0.4706023
vn 0.5080574 -0.9468269 2.084001
vn 2.390142 -0.688534 0.5145273
vn 0.5535481 -0.821082 2.339019
vn 2.117466 -0.8206809 0.4706023
vn 0.7609997 -0.1494183 1.944379
vn 0.5080574 -0.9468269 2.084001
vn -1.364761 -0.6950386 1.996944
vn 0.5535481 -0.821082 2.339019
vn -1.443666 -0.400795 2.051069
vn 1.666013 1.302728 0.1390598
vn 1.958698 -0.4517897 0.6630166
vn 1.874225 0.06968636 -1.695149
vn 1.84646 -0.4446878 -1.660778
vn -0.2008537 -0.2139177 -2.374799
vn -0.2711447 0.4914006 -2.477218
vn -1.971008 0.4649669 -1.533146
vn 1.666013 1.302728 0.1390598
vn 0.7609997 -0.1494183 1.944379
vn 1.958698 -0.4517897 0.6630166
vn 2.117466 -0.8206809 0.4706023
vn 1.84646 -0.4446878 -1.660778
vn 2.390142 -0.688534 0.5145273
vn 1.81445 -0.01532344 -1.777394
vn 1.84646 -0.4446878 -1.660778
vn 1.81445 -0.01532344 -1.777394
vn -0.2711447 0.4914006 -2.477218
vn -1.841083 -0.3851005 -0.9141652
vn -2.090161 -0.6725279 0.8800611
vn -1.673098 -0.7009317 -0.8604528
vn -1.443666 -0.400795 2.051069
vn -1.364761 -0.6950386 1.996944
vn -2.340966 -0.4549136 0.3985369
vn -1.364761 -0.6950386 1.996944
vn 0.7609997 -0.1494183 1.944379
vn -1.187356 -0.3572814 2.17537
vn -0.1412529 -0.3099466 -2.242561
vn 1.874225 0.06968636 -1.695149
vn -0.2008537 -0.2139177 -2.374799
vn -0.7842574 -2.092877 -0.6352562
vn -1.400777 -1.569225 1.42371
vn -0.7109375 -2.167047 -1.118067
vn 0.2248519 1.406328 1.674036
vn -0.4279922 1.89361 1.637885
vn -1.397907 0.2815739 2.074911
vn -1.671953 -0.3299498 1.883429
vn 1.138762 2.253673 -0.2752893
vn 1.497037 0.4813039 -1.971892
vn 1.625914 0.3875434 -1.91254
vn 0.3244669 -1.56777 -1.971908
vn -0.3076735 -0.825161 -2.382444
vn -1.363525 0.5950228 -2.058726
vn -0.3533402 -1.108863 -2.257692
vn -1.538988 0.3647544 -1.987479
vn 1.208005 -1.534148 0.76797
vn 1.587869 -1.769356 0.8942336
vn 0.9827325 -1.853811 -1.143682
vn 1.223739 -1.918149 -1.129059
vn 0.9827325 -1.853811 -1.143682
vn 1.444385 -0.2478724 0.4386766
vn 1.208005 -1.534148 0.76797
vn 0.2884617 -0.2151069 2.30712
vn 0.4767147 -0.05909789 2.494163
vn 0.9827325 -1.853811 -1.143682
vn 1.234192 -0.9940957 -1.476382
vn 1.444385 -0.2478724 0.4386766
vn 0.9828883 -0.1018752 -2.033967
vn 1.085562 2.098238 -0.9330357
vn -0.9615725 -0.9077968 -1.500061
vn -1.043698 -1.493846 -1.073266
vn 0.1270641 -1.352724 -2.12627
vn -0.1289045 -1.243886 -2.195172
vn 0.9828883 -0.1018752 -2.033967
vn 0.637257 -0.388754 -2.427833
vn -1.737066 0.4437743 0.1292436
vn -1.828978 1.684972 -0.5170198
vn -1.182685 0.9814131 1.924554
vn -1.15549 1.563863 1.634249
vn 0.3336706 2.300702 1.023248
vn -0.6890169 0.4439173 2.404119
vn -0.9678115 0.6737202 2.195088
vn -1.400777 -1.569225 1.42371
vn -1.326269 -1.309472 1.201282
vn -0.7842574 -2.092877 -0.6352562
vn -1.497476 -0.6920385 0.8932996
vn -1.043698 -1.493846 -1.073266
vn -0.9615725 -0.9077968 -1.500061
vn 1.055364 1.886944 -1.333137
vn 0.3336706 2.300702 1.023248
vn 1.085562 2.098238 -0.9330357
vn 0.4392271 2.265051 1.062183
vn 1.444385 -0.2478724 0.4386766
vn 0.7965891 0.3646754 1.801149
vn 0.2884617 -0.2151069 2.30712
vn -1.182685 0.9814131 1.924554
vn 0.4767147 -0.05909789 2.494163
vn -1.15549 1.563863 1.634249
vn 0.1270641 -1.352724 -2.12627
vn 1.234192 -0.9940957 -1.476382
vn -0.3533402 -1.108863 -2.257692
vn 0.9827325 -1.853811 -1.143682
vn 1.223739 -1.918149 -1.129059
vn 0.1270641 -1.352724 -2.12627
vn -0.3533402 -1.108863 -2.257692
vn -0.9615725 -0.9077968 -1.500061
vn -1.538988 0.3647544 -1.987479
vn -0.4279922 1.89361 1.637885
vn 0.2248519 1.406328 1.674036
vn 1.138762 2.253673 -0.2752893
vn -0.3076735 -0.825161 -2.382444
vn -0.3533402 -1.108863 -2.257692
vn 1.223739 -1.918149 -1.129059
vn -1.828978 1.684972 -0.5170198
vn -1.737066 0.4437743 0.1292436
vn -1.363525 0.5950228 -2.058726
vn 0.1270641 -1.352724 -2.12627
vn 0.9828883 -0.1018752 -2.033967
vn 1.234192 -0.9940957 -1.476382
vn 0.4767147 -0.05909789 2.494163
vn 1.587869 -1.769356 0.8942336
vn 1.208005 -1.534148 0.76797
vn -0.9678115 0.6737202 2.195088
vn -1.326269 -1.309472 1.201282
vn -0.6783397 0.8044876 2.206434
vn -1.497476 -0.6920385 0.8932996
vn -1.538612 -0.01953361 0.3469176
vn -0.9615725 -0.9077968 -1.500061
vn -1.737066 0.4437743 0.1292436
vn -1.538988 0.3647544 -1.987479
vn -1.363525 0.5950228 -2.058726
vn -1.538612 -0.01953361 0.3469176
vn -1.737066 0.4437743 0.1292436
vn -0.6783397 0.8044876 2.206434
vn -1.182685 0.9814131 1.924554
vn 0.3336706 2.300702 1.023248
vn -0.9678115 0.6737202 2.195088
vn 0.4392271 2.265051 1.062183
vn -0.6783397 0.8044876 2.206434
vn 0.7965891 0.3646754 1.801149
vn -1.182685 0.9814131 1.924554
vn 1.497037 0.4813039 -1.971892
vn 1.138762 2.253673 -0.2752893
vn 1.666013 1.302728 0.1390598
vn 0.2248519 1.406328 1.674036
vn 0.7609997 -0.1494183 1.944379
vn -1.397907 0.2815739 2.074911
vn -1.187356 -0.3572814 2.17537
vn 1.666013 1.302728 0.1390598
vn 1.874225 0.06968636 -1.695149
vn 1.497037 0.4813039 -1.971892
vn 0.1140146 -0.8606445 -2.081244
vn 0.3244669 -1.56777 -1.971908
vn -1.339862 -1.356547 -0.7299538
vn -1.422002 -2.104573 0.01696647

#UVs
vt 0.839853 0.123857021331787
vt 0.839853 0.179908990859985
vt 0.854653 0.12490701675415
vt 0.869326 0.179908990859985
vt 0.876446 0.123932003974915
vt 0.892837 0.107598006725311
vt 0.894883 0.0916230082511902
vt 0.875206 0.0899369716644287
vt 0.8966 0.0787169933319092
vt 0.876237 0.0752660036087036
vt 0.873928 0.0148530006408691
vt 0.875206 0.0899369716644287
vt 0.876536 0.108565986156464
vt 0.892837 0.107598006725311
vt 0.876378 0.123932003974915
vt 0.893194 0.127959012985229
vt 0.839853 0.0998370051383972
vt 0.839853 0.123857021331787
vt 0.854029 0.0978699922561646
vt 0.854653 0.12490701675415
vt 0.876604 0.108565986156464
vt 0.876446 0.123932003974915
vt 0.876604 0.108565986156464
vt 0.876446 0.123932003974915
vt 0.854653 0.12490701675415
vt 0.869326 0.179908990859985
vt 0.839853 0.179908990859985
vt 0.854029 0.0978699922561646
vt 0.875275 0.0899369716644287
vt 0.856771 0.0727909803390503
vt 0.876305 0.0752660036087036
vt 0.873997 0.0148530006408691
vt 0.854029 0.0978699922561646
vt 0.856771 0.0727909803390503
vt 0.839853 0.0998370051383972
vt 0.839853 0.0803930163383484
vt 0.893194 0.127959012985229
vt 0.919132 0.106338977813721
vt 0.892837 0.107598006725311
vt 0.894883 0.0916230082511902
vt 0.839853 0.0144000053405762
vt 0.856771 0.0727909803390503
vt 0.859367 0.0126550197601318
vt 0.873997 0.0148530006408691
vt 0.96944 0.119983017444611
vt 0.991041 0.123857021331787
vt 0.971764 0.179908990859985
vt 0.991042 0.179908990859985
vt 0.945223 0.0693140029907227
vt 0.972346 0.0719619989395142
vt 0.944317 0.0128589868545532
vt 0.973539 0.0152130126953125
vt 0.945223 0.0693140029907227
vt 0.970004 0.088782012462616
vt 0.972346 0.0719619989395142
vt 0.991041 0.0803930163383484
vt 0.973539 0.0152130126953125
vt 0.991041 0.0144000053405762
vt 0.946342 0.119565010070801
vt 0.94765 0.0874239802360535
vt 0.919132 0.106338977813721
vt 0.920566 0.0818570256233215
vt 0.8966 0.0787169933319092
vt 0.896663 0.0151910185813904
vt 0.873928 0.0148530006408691
vt 0.946342 0.119565010070801
vt 0.970004 0.088782012462616
vt 0.94765 0.0874239802360535
vt 0.945223 0.0693140029907227
vt 0.920566 0.0818570256233215
vt 0.944317 0.0128589868545532
vt 0.920343 0.0125929713249207
vt 0.920566 0.0818570256233215
vt 0.920343 0.0125929713249207
vt 0.896663 0.0151910185813904
vt 0.875275 0.0899369716644287
vt 0.854029 0.0978699922561646
vt 0.876604 0.108565986156464
vt 0.839853 0.0144000053405762
vt 0.839853 0.0803930163383484
vt 0.856771 0.0727909803390503
vt 0.991041 0.0803930163383484
vt 0.970004 0.088782012462616
vt 0.991041 0.0998370051383972
vt 0.894883 0.0916230082511902
vt 0.919132 0.106338977813721
vt 0.8966 0.0787169933319092
vt 0.876378 0.123932003974915
vt 0.897266 0.179908990859985
vt 0.869257 0.179908990859985
vt 0.96944 0.119983017444611
vt 0.971764 0.179908990859985
vt 0.991041 0.123857021331787
vt 0.991042 0.179908990859985
vt 0.946517 0.179908990859985
vt 0.918572 0.134010016918182
vt 0.919532 0.179908990859985
vt 0.897266 0.179908990859985
vt 0.859367 0.0126550197601318
vt 0.873997 0.0148530006408691
vt 0.856771 0.0727909803390503
vt 0.876305 0.0752660036087036
vt 0.972346 0.0719619989395142
vt 0.973539 0.0152130126953125
vt 0.991041 0.0803930163383484
vt 0.991041 0.0144000053405762
vt 0.991041 0.0803930163383484
vt 0.970004 0.088782012462616
vt 0.972346 0.0719619989395142
vt 0.945223 0.0693140029907227
vt 0.944317 0.0128589868545532
vt 0.991041 0.0803930163383484
vt 0.991041 0.0998370051383972
vt 0.970004 0.088782012462616
vt 0.991041 0.123857021331787
vt 0.96944 0.119983017444611
vt 0.875275 0.0899369716644287
vt 0.876604 0.108565986156464
vt 0.854029 0.0978699922561646
vt 0.854653 0.12490701675415
vt 0.839853 0.123857021331787
vt 0.839853 0.179908990859985
vt 0.8966 0.0787169933319092
vt 0.896663 0.0151910185813904
vt 0.920566 0.0818570256233215
vt 0.920343 0.0125929713249207
vt 0.946517 0.179908990859985
vt 0.919532 0.179908990859985
vt 0.918572 0.134010016918182
vt 0.897266 0.179908990859985
vt 0.893194 0.127959012985229
vt 0.876378 0.123932003974915
vt 0.892837 0.107598006725311
vt 0.876536 0.108565986156464
vt 0.875206 0.0899369716644287
vt 0.971764 0.179908990859985
vt 0.946517 0.179908990859985
vt 0.96944 0.119983017444611
vt 0.946342 0.119565010070801
vt 0.970004 0.088782012462616
vt 0.94765 0.0874239802360535
vt 0.945223 0.0693140029907227
vt 0.920566 0.0818570256233215
vt 0.944317 0.0128589868545532
vt 0.920343 0.0125929713249207
vt 0.854029 0.0978699922561646
vt 0.839853 0.0998370051383972
vt 0.856771 0.0727909803390503
vt 0.839853 0.0803930163383484
vt 0.839853 0.0144000053405762
vt 0.854029 0.0978699922561646
vt 0.856771 0.0727909803390503
vt 0.875275 0.0899369716644287
vt 0.876305 0.0752660036087036
vt 0.971764 0.179908990859985
vt 0.96944 0.119983017444611
vt 0.946517 0.179908990859985
vt 0.859367 0.0126550197601318
vt 0.856771 0.0727909803390503
vt 0.839853 0.0144000053405762
vt 0.896663 0.0151910185813904
vt 0.8966 0.0787169933319092
vt 0.873928 0.0148530006408691
vt 0.854029 0.0978699922561646
vt 0.839853 0.123857021331787
vt 0.839853 0.0998370051383972
vt 0.944317 0.0128589868545532
vt 0.973539 0.0152130126953125
vt 0.972346 0.0719619989395142
vt 0.918572 0.134010016918182
vt 0.893194 0.127959012985229
vt 0.919132 0.106338977813721
vt 0.892837 0.107598006725311
vt 0.894883 0.0916230082511902
vt 0.875206 0.0899369716644287
vt 0.8966 0.0787169933319092
vt 0.876237 0.0752660036087036
vt 0.873928 0.0148530006408691
vt 0.894883 0.0916230082511902
vt 0.8966 0.0787169933319092
vt 0.919132 0.106338977813721
vt 0.920566 0.0818570256233215
vt 0.946517 0.179908990859985
vt 0.918572 0.134010016918182
vt 0.946342 0.119565010070801
vt 0.919132 0.106338977813721
vt 0.94765 0.0874239802360535
vt 0.920566 0.0818570256233215
vt 0.918572 0.134010016918182
vt 0.946517 0.179908990859985
vt 0.946342 0.119565010070801
vt 0.96944 0.119983017444611
vt 0.970004 0.088782012462616
vt 0.991041 0.123857021331787
vt 0.991041 0.0998370051383972
vt 0.946342 0.119565010070801
vt 0.919132 0.106338977813721
vt 0.918572 0.134010016918182
vt 0.893194 0.127959012985229
vt 0.897266 0.179908990859985
vt 0.876378 0.123932003974915
vt 0.869257 0.179908990859985

g Sleeves
usemtl BodyA

#Trilist
f 3/3/3 2/2/2 1/1/1
f 4/4/4 2/2/2 3/3/3
f 5/5/5 4/4/4 3/3/3
f 8/8/8 7/7/7 6/6/6
f 9/9/9 7/7/7 8/8/8
f 10/10/10 9/9/9 8/8/8
f 11/11/11 9/9/9 10/10/10
f 6/14/14 12/13/13 8/12/12
f 5/15/15 12/13/13 6/14/14
f 13/16/16 5/15/15 6/14/14
f 15/19/19 1/18/18 14/17/17
f 3/20/20 1/18/18 15/19/19
f 12/21/21 3/20/20 15/19/19
f 5/22/22 3/20/20 12/21/21
f 18/25/25 17/24/24 16/23/23
f 19/26/26 17/24/24 18/25/25
f 20/27/27 19/26/26 18/25/25
f 21/30/30 8/29/29 15/28/28
f 10/31/31 8/29/29 21/30/30
f 11/32/32 10/31/31 21/30/30
f 14/35/35 21/34/34 15/33/33
f 22/36/36 21/34/34 14/35/35
f 6/39/39 23/38/38 13/37/37
f 7/40/40 23/38/38 6/39/39
f 25/43/43 21/42/42 24/41/41
f 11/44/44 21/42/42 25/43/43
f 28/47/47 27/46/46 26/45/45
f 20/48/48 27/46/46 28/47/47
f 31/51/51 30/50/50 29/49/49
f 32/52/52 30/50/50 31/51/51
f 30/55/55 33/54/54 29/53/53
f 22/56/56 33/54/54 30/55/55
f 32/57/57 22/56/56 30/55/55
f 24/58/58 22/56/56 32/57/57
f 23/61/61 35/60/60 34/59/59
f 36/62/62 35/60/60 23/61/61
f 9/63/63 36/62/62 23/61/61
f 37/64/64 36/62/62 9/63/63
f 11/65/65 37/64/64 9/63/63
f 35/68/68 33/67/67 34/66/66
f 29/69/69 33/67/67 35/68/68
f 36/70/70 29/69/69 35/68/68
f 31/71/71 29/69/69 36/70/70
f 38/72/72 31/71/71 36/70/70
f 37/75/75 38/74/74 36/73/73
f 12/78/78 15/77/77 8/76/76
f 21/81/81 22/80/80 24/79/79
f 14/84/84 33/83/83 22/82/82
f 9/87/87 23/86/86 7/85/85
f 19/90/90 39/89/89 17/88/88
f 1/93/93 41/92/92 40/91/91
f 2/94/94 41/92/92 1/93/93
f 44/97/97 43/96/96 42/95/95
f 45/98/98 43/96/96 44/97/97
f 48/101/101 47/100/100 46/99/99
f 49/102/102 47/100/100 48/101/101
f 52/105/105 51/104/104 50/103/103
f 53/106/106 51/104/104 52/105/105
f 50/109/109 54/108/108 52/107/107
f 55/110/110 54/108/108 50/109/109
f 56/111/111 55/110/110 50/109/109
f 54/114/114 57/113/113 52/112/112
f 27/115/115 57/113/113 54/114/114
f 26/116/116 27/115/115 54/114/114
f 59/119/119 16/118/118 58/117/117
f 18/120/120 16/118/118 59/119/119
f 27/121/121 18/120/120 59/119/119
f 20/122/122 18/120/120 27/121/121
f 62/125/125 61/124/124 60/123/123
f 63/126/126 61/124/124 62/125/125
f 66/129/129 65/128/128 64/127/127
f 39/130/130 65/128/128 66/129/129
f 67/131/131 39/130/130 66/129/129
f 17/132/132 39/130/130 67/131/131
f 68/133/133 17/132/132 67/131/131
f 16/134/134 17/132/132 68/133/133
f 58/135/135 16/134/134 68/133/133
f 26/138/138 64/137/137 28/136/136
f 69/139/139 64/137/137 26/138/138
f 54/140/140 69/139/139 26/138/138
f 70/141/141 69/139/139 54/140/140
f 55/142/142 70/141/141 54/140/140
f 62/143/143 70/141/141 55/142/142
f 56/144/144 62/143/143 55/142/142
f 63/145/145 62/143/143 56/144/144
f 48/148/148 57/147/147 59/146/146
f 52/149/149 57/147/147 48/148/148
f 53/150/150 52/149/149 48/148/148
f 58/153/153 48/152/152 59/151/151
f 49/154/154 48/152/152 58/153/153
f 42/157/157 40/156/156 41/155/155
f 53/160/160 48/159/159 46/158/158
f 47/163/163 60/162/162 61/161/161
f 57/166/166 27/165/165 59/164/164
f 50/169/169 51/168/168 56/167/167
f 71/172/172 67/171/171 66/170/170
f 68/173/173 67/171/171 71/172/172
f 72/174/174 68/173/173 71/172/172
f 58/175/175 68/173/173 72/174/174
f 60/176/176 58/175/175 72/174/174
f 49/177/177 58/175/175 60/176/176
f 47/178/178 49/177/177 60/176/176
f 71/181/181 60/180/180 72/179/179
f 62/182/182 60/180/180 71/181/181
f 69/185/185 66/184/184 64/183/183
f 71/186/186 66/184/184 69/185/185
f 70/187/187 71/186/186 69/185/185
f 62/188/188 71/186/186 70/187/187
f 34/191/191 42/190/190 43/189/189
f 40/192/192 42/190/190 34/191/191
f 33/193/193 40/192/192 34/191/191
f 1/194/194 40/192/192 33/193/193
f 14/195/195 1/194/194 33/193/193
f 43/198/198 23/197/197 34/196/196
f 13/199/199 23/197/197 43/198/198
f 45/200/200 13/199/199 43/198/198
f 5/201/201 13/199/199 45/200/200
f 4/202/202 5/201/201 45/200/200
