#Wavefront OBJ file, generated by BrawlCrate v0.25.4.0

#Vertices
v -0.4821442 16.32452 1.860556
v -0.789834 17.07479 0.6900851
v -1.204531 17.03828 1.593883
v -1.281973 17.92597 1.149224
v -1.304383 17.78464 1.594229
v -1.347221 18.61924 1.693923
v -1.171981 18.45645 2.375049
v -0.7835085 16.91069 2.30643
v -0.58675 17.43753 2.483948
v -0.609741 18.25584 2.720297
v -0.004050208 18.37615 2.783337
v 0.5009915 17.66052 2.225355
v 0.5741539 18.48715 2.365601
v 0.7769591 17.78442 1.86899
v -0.4013511 16.87841 2.435486
v 0.3933886 16.91334 2.129076
v 0.5766936 16.98084 1.167798
v -0.1058496 16.59301 0.8315613

#Normals
vn -0.01625004 -0.8628622 0.5051833
vn -0.7451159 -0.6668077 -0.01326203
vn -0.7128758 -0.3608699 0.6013205
vn -0.9763485 -0.1562124 0.1494884
vn -0.783363 -0.05588514 0.6190506
vn -0.9013863 -0.01525904 0.4327521
vn -0.5508134 -0.1070023 0.8277441
vn -0.7128758 -0.3608699 0.6013205
vn -0.783363 -0.05588514 0.6190506
vn -0.4911412 -0.1180653 0.8630452
vn 0.02106005 0.1224523 0.9922535
vn -0.783363 -0.05588514 0.6190506
vn -0.5508134 -0.1070023 0.8277441
vn 0.02106005 0.1224523 0.9922535
vn 0.01793705 -0.006212015 0.9998225
vn 0.5681664 -0.09574924 0.817327
vn 0.02106005 0.1224523 0.9922535
vn 0.5681664 -0.09574924 0.817327
vn 0.790045 -0.02803807 0.6124105
vn 0.9032553 -0.009918025 0.4289951
vn 0.9822574 -0.1321783 0.1330583
vn 0.02106005 0.1224523 0.9922535
vn 0.790045 -0.02803807 0.6124105
vn 0.5049862 -0.1293193 0.8533881
vn 0.7210058 -0.3744179 0.5830664
vn 0.790045 -0.02803807 0.6124105
vn 0.9822574 -0.1321783 0.1330583
vn 0.7210058 -0.3744179 0.5830664
vn 0.7362118 -0.6752167 -0.04561011
vn -0.01625004 -0.8628622 0.5051833
vn -0.002414006 -0.9996565 -0.02618507
vn -0.7451159 -0.6668077 -0.01326203

#UVs
vt 0.504583 -1.08540201187134
vt 0.177931 -0.533999919891357
vt 0.031001 -0.366999983787537
vt -0.078822 0.370999991893768
vt -0.018645 0.337999999523163
vt -0.052315 1.19821000099182
vt 0.231134 1.17097198963165
vt 0.031001 -0.366999983787537
vt -0.018645 0.337999999523163
vt 0.375511 -0.333999991416931
vt 0.504583 0.185886025428772
vt -0.018645 0.337999999523163
vt 0.231134 1.17097198963165
vt 0.504583 0.185886025428772
vt 0.504583 1.01912903785706
vt 0.768968 1.17097198963165
vt 0.504583 0.185886025428772
vt 0.768968 1.17097198963165
vt 1.018747 0.337999999523163
vt 1.052416 1.19821000099182
vt 1.078923 0.370999991893768
vt 0.504583 0.185886025428772
vt 1.018747 0.337999999523163
vt 0.624591 -0.333999991416931
vt 0.969101 -0.366999983787537
vt 1.018747 0.337999999523163
vt 1.078923 0.370999991893768
vt 0.969101 -0.366999983787537
vt 0.82217 -0.533999919891357
vt 0.504583 -1.08540201187134
vt 0.504583 -1.06300592422485
vt 0.177931 -0.533999919891357

g Face
usemtl Face

#Trilist
f 3/3/3 2/2/2 1/1/1
f 4/4/4 2/2/2 3/3/3
f 5/5/5 4/4/4 3/3/3
f 6/6/6 4/4/4 5/5/5
f 7/7/7 6/6/6 5/5/5
f 8/10/10 5/9/9 3/8/8
f 9/11/11 5/9/9 8/10/10
f 9/14/14 7/13/13 5/12/12
f 10/15/15 7/13/13 9/14/14
f 11/16/16 10/15/15 9/14/14
f 12/19/19 11/18/18 9/17/17
f 13/20/20 11/18/18 12/19/19
f 14/21/21 13/20/20 12/19/19
f 15/24/24 12/23/23 9/22/22
f 16/25/25 12/23/23 15/24/24
f 16/28/28 14/27/27 12/26/26
f 17/29/29 14/27/27 16/28/28
f 1/30/30 17/29/29 16/28/28
f 18/31/31 17/29/29 1/30/30
f 2/32/32 18/31/31 1/30/30
