# 3ds Max Wavefront OBJ Exporter v0.97b - (c)2007 guruware
# File Created: 07.01.2018 14:58:21

mtllib FixedLeaves2.mtl

#
# object polygon9
#

v  -3.5045 6.6754 -6.8745
v  -5.8841 7.4450 -6.2653
v  -4.7706 6.1805 -7.3144
v  -4.5534 8.1266 -5.5737
v  -2.4184 6.6879 -6.3768
v  -3.3060 8.0670 -4.6035
v  -1.3552 6.1920 -5.5087
v  -0.9054 5.7260 -4.3962
v  -2.2851 7.4182 -3.7053
v  -1.6345 6.4682 -3.1055
v  -1.3033 5.5380 -2.6864
v  -2.5529 6.7002 -1.7723
v  -3.6896 7.6960 -1.9007
v  -6.0980 5.5532 -7.2541
v  -6.9252 6.2570 -6.4714
v  -7.6169 6.7466 -5.4218
v  -7.2455 5.5880 -6.3441
v  -0.3318 5.1610 -3.0278
v  0.0485 5.9795 -3.7564
v  1.5274 5.8405 -2.9430
v  -1.4620 5.8356 -4.5087
v  -6.9544 7.9321 -4.6580
v  -5.8379 8.6720 -3.7424
v  3.8504 5.6452 -6.6670
v  2.6447 4.8661 -8.7097
v  3.7203 4.5790 -7.6957
v  2.2586 6.2251 -7.9768
v  3.5021 6.3499 -5.3853
v  1.6065 7.0870 -6.7345
v  2.4136 6.1808 -3.3104
v  0.8712 7.2196 -5.3310
v  3.0090 6.4959 -4.1790
v  0.2769 6.7110 -4.1948
v  0.2769 5.6394 -8.5387
v  -0.5802 6.3432 -7.5234
v  -1.2913 6.4888 -6.4313
v  -1.6655 6.1741 -5.4469
v  2.6948 4.1221 -8.8031
v  1.1994 4.5749 -9.0161
v  1.2685 7.4567 -1.7799
v  1.8501 8.6061 0.8722
v  0.6192 7.6327 0.4191
v  2.5448 8.1775 -1.4517
v  2.2404 6.3382 -3.6246
v  3.5312 6.9347 -3.2661
v  4.0020 8.1292 -0.9929
v  4.5514 7.0733 -2.8163
v  5.8193 4.7494 0.0052
v  5.8345 5.5811 -0.0769
v  6.0836 5.2940 -1.3545
v  5.2783 5.6790 1.1450
v  1.1122 5.7487 -3.3399
v  0.4656 6.4713 -1.9992
v  -0.1005 6.6852 -0.4831
v  -1.0647 7.9255 -1.5196
v  0.5478 6.6032 -0.7653
v  0.9035 7.5630 -0.0437
v  -0.8671 6.7749 -1.8123
v  -2.5343 6.5996 -2.3340
v  -0.7692 5.7386 -1.8218
v  -0.0602 5.5400 -2.0353
v  -3.3337 7.6097 -2.3024
v  -2.0538 9.4426 0.3687
v  -0.0063 8.9265 1.5108
v  -0.8036 8.3491 2.5189
v  0.5716 8.6698 0.7558
v  -1.4391 9.0634 -0.8052
v  -3.1465 7.3493 2.6013
v  -1.8270 7.2170 3.1489
v  -3.2437 6.4995 2.7646
v  -2.7052 8.7806 1.6926
v  -4.3652 7.2383 1.8295
v  -4.5090 8.3798 0.6513
v  -4.1927 8.9771 -0.6657
v  -3.8514 8.7190 -1.6014
v  -1.9764 7.3368 -3.0463
v  -1.4607 7.3742 -2.4023
v  -1.3799 7.5701 -2.4834
v  -2.1658 7.0099 -2.9439
v  -1.4191 7.0561 -3.6065
v  -1.3542 7.2699 -3.6895
v  -1.5388 7.4565 -3.0804
v  -1.1606 6.8907 -4.3429
v  -1.4232 6.5061 -4.5009
v  -0.3430 6.7396 -4.2691
v  -0.3815 6.9929 -4.2763
v  -0.9405 7.1207 -4.1099
v  0.3960 6.6649 -4.4077
v  0.4912 6.2237 -4.5985
v  0.6941 6.7413 -3.7259
v  0.7213 6.9947 -3.6987
v  0.2215 6.9686 -4.0860
v  1.2285 6.8946 -3.0916
v  1.5004 6.5109 -2.9697
v  0.7614 7.0596 -2.4644
v  0.7759 7.2840 -2.5296
v  0.9025 7.1237 -3.1446
v  0.5544 7.3892 -1.8115
v  0.6420 7.0145 -1.4733
v  -0.2057 7.3763 -1.7449
v  -0.1855 7.5720 -1.8578
v  0.3961 7.4596 -2.0670
v  -1.0407 7.5689 -1.6675
v  -1.1968 7.2859 -1.3791
v  -0.8535 7.6220 -2.0370
# 105 vertices

vn -0.1972 -0.7059 0.6639
vn 0.1737 -0.7102 0.6671
vn 0.0164 -0.6141 0.7787
vn -0.1382 -0.8673 0.4472
vn -0.4868 -0.7670 0.4180
vn -0.4701 -0.8671 0.1578
vn -0.6149 -0.7468 0.2387
vn -0.7856 -0.6138 -0.0136
vn -0.6181 -0.7769 -0.0822
vn -0.7363 -0.6193 -0.2595
vn -0.8278 -0.4566 -0.3259
vn -0.7000 -0.6022 -0.3742
vn -0.5760 -0.7366 -0.3428
vn 0.3498 -0.4326 0.8271
vn 0.5208 -0.4433 0.7244
vn 0.5487 -0.5805 0.5949
vn 0.6457 -0.2635 0.7167
vn 0.3216 -0.7228 -0.6117
vn 0.3148 -0.7218 -0.5988
vn 0.1642 -0.8008 -0.5574
vn 0.3668 -0.8004 -0.4513
vn 0.2423 -0.8597 0.4228
vn -0.0857 -0.9585 0.2058
vn -0.5871 -0.6912 0.3974
vn -0.4018 -0.4898 0.7688
vn -0.6803 -0.4093 0.6023
vn -0.2595 -0.8140 0.4980
vn -0.4247 -0.8856 0.0950
vn -0.0854 -0.9661 0.1723
vn -0.0807 -0.9044 -0.3944
vn 0.0242 -0.9838 -0.0431
vn -0.2066 -0.9481 -0.2416
vn 0.2493 -0.8321 -0.4734
vn 0.0094 -0.6902 0.7098
vn 0.1660 -0.8846 0.4044
vn 0.3187 -0.9473 0.0335
vn 0.3724 -0.9037 -0.1570
vn -0.4517 -0.2256 0.8632
vn -0.1067 -0.4084 0.9028
vn 0.4653 -0.7662 0.4279
vn 0.4016 -0.8803 0.2440
vn 0.6490 -0.7110 0.2434
vn 0.1990 -0.8736 0.4394
vn 0.2031 -0.7551 0.6133
vn -0.0038 -0.7939 0.6080
vn -0.2927 -0.8821 0.1681
vn -0.4441 -0.7622 0.3648
vn -0.9513 -0.1168 -0.2854
vn -0.9015 -0.3364 -0.2257
vn -0.9076 -0.3945 -0.0365
vn -0.8085 -0.4382 -0.3572
vn 0.4693 -0.6091 0.6313
vn 0.6420 -0.6110 0.4504
vn 0.7146 -0.5922 0.3552
vn -0.4280 -0.4148 0.7981
vn -0.6049 -0.1746 0.7747
vn -0.5717 -0.5303 0.6201
vn -0.4683 -0.1099 0.8747
vn -0.2908 -0.3140 0.8996
vn -0.4646 -0.1679 0.8695
vn 0.7405 -0.4540 0.4955
vn -0.2035 -0.5279 0.8201
vn -0.0603 -0.9043 0.0887
vn -0.2588 -0.8785 -0.0165
vn -0.0653 -0.8563 -0.3761
vn -0.5115 -0.7153 0.4740
vn -0.3509 -0.6754 0.6469
vn 0.3739 -0.5325 -0.7296
vn 0.2049 -0.6045 -0.7413
vn 0.4340 -0.3200 -0.8422
vn 0.1914 -0.8257 -0.3920
vn 0.4776 -0.5997 -0.6073
vn 0.3300 -0.8562 -0.1879
vn 0.1419 -0.8841 0.1874
vn -0.1211 -0.7169 0.6851
vn -0.7278 0.6579 -0.1923
vn -0.7331 0.5438 0.4076
vn -0.5454 0.8037 0.2364
vn -0.8752 0.4592 -0.1514
vn -0.7887 0.2290 -0.5705
vn -0.6367 0.5225 -0.5668
vn -0.2839 0.9293 -0.2345
vn -0.3347 0.5210 -0.7849
vn -0.3202 0.5383 -0.7792
vn -0.0251 0.1549 -0.9873
vn 0.0232 0.4130 -0.9100
vn -0.1443 0.7783 -0.6104
vn 0.4163 0.4508 -0.7891
vn 0.4188 0.4270 -0.8009
vn 0.8276 0.1507 -0.5401
vn 0.7330 0.4165 -0.5371
vn 0.2902 0.7779 -0.5566
vn 0.8373 0.5199 -0.1676
vn 0.8288 0.5313 -0.1742
vn 0.8909 0.2834 0.3548
vn 0.8082 0.5431 0.2270
vn 0.5740 0.7860 -0.2279
vn 0.5549 0.7013 0.4470
vn 0.5966 0.6097 0.5215
vn 0.1326 0.5712 0.8096
vn 0.1435 0.8057 0.5740
vn 0.3319 0.9402 0.0711
vn -0.2537 0.8352 0.4870
vn -0.3020 0.7603 0.5743
vn -0.0716 0.9881 0.1328
# 105 vertex normals

vt 0.4864 1.5550 0.0000
vt 0.3450 1.7434 0.0000
vt 0.4679 1.7434 0.0000
vt 0.3450 1.5550 0.0000
vt 0.4855 1.3922 0.0000
vt 0.3450 1.3883 0.0000
vt 0.4770 1.2296 0.0000
vt 0.4364 1.1053 0.0000
vt 0.3450 1.2243 0.0000
vt 0.3450 1.0938 0.0000
vt 0.3450 1.0070 0.0000
vt 0.4321 1.9252 0.0000
vt 0.3450 1.9252 0.0000
vt 0.3450 1.9923 0.0000
vt 0.4865 1.5550 0.0000
vt 0.4365 1.1053 0.0000
vt 0.4772 1.2296 0.0000
vt 0.3450 1.0077 0.0000
vt 0.4866 1.5550 0.0000
vt 0.4681 1.7434 0.0000
vt 0.4857 1.3922 0.0000
vt 0.3450 1.9161 0.0000
vt 0.4322 1.9252 0.0000
vt 0.9171 1.8510 0.0000
vt 0.9799 1.8808 0.0000
vt 0.9849 1.9542 0.0000
vt 0.9171 1.7011 0.0000
vt 0.8561 1.8808 0.0000
vt 0.8524 1.9542 0.0000
vt 0.9171 1.9351 0.0000
vt 0.9167 1.8483 0.0000
vt 0.9810 1.8808 0.0000
vt 0.9834 1.9542 0.0000
vt 0.9169 1.7002 0.0000
vt 0.8529 1.9542 0.0000
vt 0.9168 1.9342 0.0000
# 36 texture coords

o polygon9
g polygon9
usemtl Material__25
s 1
f 1/1/1 2/2/2 3/3/3 
f 4/4/4 2/2/2 1/1/1 
f 5/5/5 4/4/4 1/1/1 
f 6/6/6 4/4/4 5/5/5 
f 7/7/7 6/6/6 5/5/5 
f 8/8/8 9/9/9 7/7/7 
f 10/10/10 9/9/9 8/8/8 
f 11/11/11 10/10/10 8/8/8 
f 12/8/12 10/10/10 11/11/11 
f 13/7/13 10/10/10 12/8/12 
f 9/9/9 10/10/10 13/7/13 
f 2/2/2 14/12/14 3/3/3 
f 15/13/15 14/12/14 2/2/2 
f 16/12/16 15/13/15 2/2/2 
f 17/14/17 15/13/15 16/12/16 
f 18/11/18 19/10/19 20/8/20 
f 21/8/21 19/10/19 18/11/18 
f 2/2/2 22/3/22 16/12/16 
f 4/4/4 22/3/22 2/2/2 
f 4/4/4 23/15/23 22/3/22 
f 15/13/15 17/14/17 14/12/14 
f 24/3/24 25/13/25 26/12/26 
f 27/2/27 25/13/25 24/3/24 
f 28/15/28 27/2/27 24/3/24 
f 29/4/29 27/2/27 28/15/28 
f 30/7/30 31/6/31 32/5/32 
f 33/9/33 31/6/31 30/7/30 
f 20/8/20 33/9/33 30/7/30 
f 19/10/19 33/9/33 20/8/20 
f 27/2/27 34/3/34 25/13/25 
f 35/15/35 34/3/34 27/2/27 
f 29/4/29 35/15/35 27/2/27 
f 36/5/36 35/15/35 29/4/29 
f 31/6/31 36/5/36 29/4/29 
f 37/7/37 36/5/36 31/6/31 
f 33/9/33 37/7/37 31/6/31 
f 21/8/21 37/7/37 33/9/33 
f 19/10/19 21/8/21 33/9/33 
f 25/13/25 38/14/38 26/12/26 
f 39/12/39 38/14/38 25/13/25 
f 34/3/34 39/12/39 25/13/25 
f 40/9/40 41/5/41 42/7/42 
f 43/6/43 41/5/41 40/9/40 
f 44/7/44 43/6/43 40/9/40 
f 45/5/45 43/6/43 44/7/44 
f 45/5/45 46/4/46 43/6/43 
f 47/1/47 46/4/46 45/5/45 
f 48/14/48 49/13/49 50/12/50 
f 51/12/51 49/13/49 48/14/48 
f 40/9/40 52/8/52 44/7/44 
f 53/10/53 52/8/52 40/9/40 
f 42/7/42 53/10/53 40/9/40 
f 54/8/54 53/10/53 42/7/42 
f 55/9/55 56/16/56 57/17/57 
f 58/10/58 56/16/56 55/9/55 
f 59/16/59 58/10/58 55/9/55 
f 60/18/60 58/10/58 59/16/59 
f 53/10/53 61/11/61 52/8/52 
f 54/8/54 61/11/61 53/10/53 
f 56/16/56 58/10/58 60/18/60 
f 59/16/59 55/9/55 62/17/62 
f 63/4/63 64/19/64 65/20/65 
f 57/17/57 66/21/66 67/6/67 
f 55/9/55 57/17/57 67/6/67 
f 68/22/68 69/23/69 70/14/70 
f 71/2/71 69/23/69 68/22/68 
f 72/23/72 71/2/71 68/22/68 
f 73/20/73 71/2/71 72/23/72 
f 71/2/71 65/20/65 69/23/69 
f 63/4/63 65/20/65 71/2/71 
f 73/20/73 63/4/63 71/2/71 
f 74/19/74 63/4/63 73/20/73 
f 75/21/75 63/4/63 74/19/74 
f 67/6/67 63/4/63 75/21/75 
f 62/17/62 67/6/67 75/21/75 
f 55/9/55 67/6/67 62/17/62 
f 72/23/72 68/22/68 70/14/70 
f 76/24/76 77/25/77 78/26/78 
f 79/27/79 77/25/77 76/24/76 
f 80/28/80 79/27/79 76/24/76 
f 76/24/76 81/29/81 80/28/80 
f 82/30/82 81/29/81 76/24/76 
f 78/26/78 82/30/82 76/24/76 
f 83/24/83 80/25/80 81/26/81 
f 84/27/84 80/25/80 83/24/83 
f 85/28/85 84/27/84 83/24/83 
f 83/24/83 86/29/86 85/28/85 
f 87/30/87 86/29/86 83/24/83 
f 81/26/81 87/30/87 83/24/83 
f 88/24/88 85/25/85 86/26/86 
f 89/27/89 85/25/85 88/24/88 
f 90/28/90 89/27/89 88/24/88 
f 88/24/88 91/29/91 90/28/90 
f 92/30/92 91/29/91 88/24/88 
f 86/26/86 92/30/92 88/24/88 
f 93/31/93 90/32/90 91/33/91 
f 94/34/94 90/32/90 93/31/93 
f 95/28/95 94/34/94 93/31/93 
f 93/31/93 96/35/96 95/28/95 
f 97/36/97 96/35/96 93/31/93 
f 91/33/91 97/36/97 93/31/93 
f 98/24/98 95/25/95 96/26/96 
f 99/27/99 95/25/95 98/24/98 
f 100/28/100 99/27/99 98/24/98 
f 98/24/98 101/29/101 100/28/100 
f 102/30/102 101/29/101 98/24/98 
f 96/26/96 102/30/102 98/24/98 
f 103/24/103 100/25/100 101/26/101 
f 104/27/104 100/25/100 103/24/103 
f 77/28/77 104/27/104 103/24/103 
f 103/24/103 78/29/78 77/28/77 
f 105/30/105 78/29/78 103/24/103 
f 101/26/101 105/30/105 103/24/103 
# 0 polygons - 113 triangles

#
# object polygon11
#

v  1.8335 8.6059 0.8778
v  1.2520 7.4565 -1.7743
v  0.6027 7.6325 0.4247
v  2.5283 8.1773 -1.4461
v  3.1253 8.2422 1.1170
v  3.9854 8.1290 -0.9873
v  4.3855 7.1278 1.3535
v  5.2132 7.1363 -0.4415
v  5.2617 5.6787 1.1506
v  5.8180 5.5809 -0.0713
v  5.8187 4.7492 0.0108
v  5.8339 5.5809 -0.0713
v  5.2777 5.6787 1.1506
v  6.0830 5.2937 -1.3489
v  4.5348 7.0730 -2.8107
v  5.5265 6.3704 -2.2151
v  2.2239 6.3380 -3.6190
v  6.0671 5.2937 -1.3489
v  1.0957 5.7485 -3.3343
v  0.4490 6.4710 -1.9936
v  -0.0767 5.5398 -2.0297
v  -0.1171 6.6850 -0.4775
v  -1.3078 6.4886 -6.4257
v  1.5900 7.0867 -6.7289
v  -0.5967 6.3430 -7.5178
v  2.9924 6.4957 -4.1734
v  3.4856 6.3497 -5.3796
v  0.8545 7.2193 -5.3252
v  -1.6820 6.1739 -5.4413
v  2.3971 6.1806 -3.3048
v  0.2604 6.7108 -4.1892
v  -1.4785 5.8353 -4.5031
v  1.5109 5.8402 -2.9374
v  0.0320 5.9793 -3.7508
v  -0.3483 5.1608 -3.0222
v  -6.9709 7.9319 -4.6524
v  -4.5700 8.1264 -5.5680
v  -5.9006 7.4448 -6.2597
v  -5.8544 8.6718 -3.7368
v  -6.9417 6.2568 -6.4658
v  -6.1145 5.5530 -7.2485
v  -7.2621 5.5878 -6.3384
v  -7.6334 6.7463 -5.4162
v  -2.4350 6.6877 -6.3712
v  -3.5211 6.6752 -6.8688
v  -3.3225 8.0668 -4.5979
v  -4.7954 8.6237 -2.7024
v  -1.3718 6.1918 -5.5031
v  -2.3017 7.4180 -3.6996
v  -3.7061 7.6958 -1.8951
v  -0.9220 5.7258 -4.3905
v  -1.6511 6.4680 -3.0999
v  -2.5694 6.7000 -1.7667
v  -0.7858 5.7384 -1.9665
v  -0.9285 6.7811 -1.8715
v  0.5012 6.5689 -0.8526
v  -2.5509 6.5994 -2.4221
v  -1.3198 5.5377 -2.6808
v  -3.1630 7.3491 2.6069
v  -3.2603 6.4992 2.7702
v  -1.8436 7.2168 3.1545
v  -4.3818 7.2381 1.8351
v  -2.7218 8.7804 1.6982
v  -4.5255 8.3796 0.6569
v  -2.0703 9.4423 0.3743
v  -4.2093 8.9769 -0.6601
v  -3.8680 8.7188 -1.5958
v  0.5551 8.6696 0.7614
v  -0.0229 8.9262 1.5164
v  -1.4557 9.0632 -0.7996
v  0.5012 6.5689 -0.7960
v  -1.0812 7.9252 -1.6077
v  0.8870 7.5628 -0.1318
v  -3.3503 7.6095 -2.2968
v  -0.9285 6.7811 -1.8149
v  -0.8201 8.3489 2.5245
# 76 vertices

vn -0.5513 0.8028 -0.2271
vn -0.4152 0.8644 -0.2836
vn 0.2854 0.9541 -0.0907
vn 0.0443 0.9984 -0.0356
vn 0.6241 0.7513 0.2147
vn 0.5382 0.8043 0.2520
vn 0.8148 0.4398 0.3778
vn 0.8418 0.4107 0.3503
vn 0.9106 0.0241 0.4126
vn 0.9816 0.0010 0.1911
vn 0.6446 0.7367 -0.2043
vn 0.6695 0.7122 -0.2107
vn -0.2711 0.7531 -0.5995
vn 0.9202 0.3801 0.0940
vn 0.9019 0.4312 -0.0269
vn -0.4794 0.6154 -0.6257
vn -0.5595 0.5863 -0.5859
vn -0.7071 0.4212 -0.5680
vn -0.8041 0.4682 -0.3663
vn -0.2216 0.9372 -0.2693
vn 0.3451 0.9382 0.0276
vn 0.2900 0.9550 0.0617
vn -0.2183 0.9542 -0.2045
vn -0.3827 0.9122 0.1462
vn 0.0954 0.9130 0.3966
vn 0.0466 0.9024 0.4284
vn -0.3810 0.9017 0.2044
vn -0.4694 0.7932 0.3880
vn -0.0537 0.7939 0.6057
vn -0.3584 0.5597 0.7472
vn -0.4116 0.5596 0.7193
vn -0.3678 0.7078 0.6031
vn -0.7182 0.6439 -0.2636
vn -0.5805 0.7478 -0.3222
vn -0.2881 0.7080 0.6448
vn -0.2312 0.8776 -0.4200
vn -0.2326 0.8754 -0.4239
vn -0.3687 0.4630 -0.8060
vn -0.6121 0.1451 -0.7774
vn -0.7534 0.2445 -0.6105
vn 0.2714 0.7437 -0.6109
vn 0.3816 0.8124 -0.4408
vn 0.1754 0.9704 -0.1660
vn 0.1838 0.9725 -0.1429
vn 0.5893 0.7536 -0.2912
vn 0.6363 0.7497 -0.1817
vn 0.4664 0.8784 0.1044
vn 0.5036 0.8221 0.2654
vn 0.7661 0.6414 -0.0411
vn 0.7907 0.6041 0.0993
vn 0.6293 0.6746 0.3859
vn 0.6111 0.7353 0.2930
vn 0.4622 0.1430 -0.8751
vn 0.4986 0.1838 -0.8471
vn 0.5880 0.2036 -0.7828
vn 0.3059 0.1279 -0.9434
vn -0.5336 0.5752 -0.6200
vn -0.5282 0.6484 -0.5482
vn 0.8714 0.4226 0.2492
vn 0.7625 0.4713 0.4432
vn -0.3558 0.2155 0.9094
vn -0.5362 0.2181 0.8154
vn -0.4756 0.5713 0.6689
vn -0.4976 0.5919 0.6341
vn -0.3557 0.8941 0.2720
vn -0.3457 0.8830 0.3175
vn -0.0684 0.9551 -0.2884
vn 0.2943 0.9507 -0.0979
vn 0.2993 0.9427 -0.1478
vn 0.6093 0.2633 -0.7479
vn 0.5859 0.2555 -0.7690
vn -0.0292 0.9466 -0.3211
vn 0.1781 0.5837 -0.7922
vn 0.3220 0.2101 -0.9231
vn -0.2643 0.5737 0.7753
vn -0.1970 0.6067 0.7702
vn 0.0071 0.8930 0.4500
vn -0.0412 0.8807 0.4718
# 78 vertex normals

vt 0.6429 1.3922 0.0000
vt 0.5023 1.2243 0.0000
vt 0.6344 1.2296 0.0000
vt 0.5023 1.3883 0.0000
vt 0.6438 1.5550 0.0000
vt 0.5023 1.5550 0.0000
vt 0.6253 1.7434 0.0000
vt 0.5023 1.7434 0.0000
vt 0.5894 1.9252 0.0000
vt 0.5023 1.9252 0.0000
vt 0.5023 1.9923 0.0000
vt 0.5937 1.1053 0.0000
vt 0.5023 1.0938 0.0000
vt 0.5023 1.0070 0.0000
vt 0.5023 1.0077 0.0000
vt 0.5939 1.1053 0.0000
vt 0.5023 1.9161 0.0000
vt 0.5896 1.9252 0.0000
vt 0.6254 1.7434 0.0000
vt 0.6439 1.5550 0.0000
vt 0.6430 1.3922 0.0000
vt 0.6345 1.2296 0.0000
# 22 texture coords

o polygon11
g polygon11
usemtl Material__26
s 1
f 106/37/106 107/38/106 108/39/106 
f 109/40/107 107/38/107 106/37/107 
f 110/41/108 109/40/108 106/37/108 
f 111/42/109 109/40/109 110/41/109 
f 112/43/110 111/42/110 110/41/110 
f 113/44/111 111/42/111 112/43/111 
f 114/45/112 113/44/112 112/43/112 
f 115/46/113 113/44/113 114/45/113 
f 116/47/114 117/46/114 118/45/114 
f 119/45/115 117/46/115 116/47/115 
f 120/41/116 113/44/116 121/43/116 
f 111/42/117 113/44/117 120/41/117 
f 107/38/118 109/40/118 122/39/118 
f 123/45/119 113/44/119 115/46/119 
f 121/43/120 113/44/120 123/45/120 
f 124/48/121 107/38/121 122/39/121 
f 125/49/122 107/38/122 124/48/122 
f 126/50/123 125/49/123 124/48/123 
f 127/48/124 125/49/124 126/50/124 
f 128/37/125 129/42/125 130/41/125 
f 129/42/126 131/37/126 132/41/126 
f 133/40/127 131/37/127 129/42/127 
f 128/37/128 133/40/128 129/42/128 
f 134/39/129 133/40/129 128/37/129 
f 133/40/130 135/39/130 131/37/130 
f 136/38/131 135/39/131 133/40/131 
f 134/39/132 136/38/132 133/40/132 
f 137/48/133 136/38/133 134/39/133 
f 136/38/134 138/48/134 135/39/134 
f 139/49/135 138/48/135 136/38/135 
f 137/48/136 139/49/136 136/38/136 
f 140/50/137 139/49/137 137/48/137 
f 125/49/138 108/39/138 107/38/138 
f 127/48/139 108/39/139 125/49/139 
f 139/49/140 140/50/140 138/48/140 
f 141/43/141 142/42/141 143/44/141 
f 144/41/142 142/42/142 141/43/142 
f 145/46/143 143/44/143 146/45/143 
f 147/47/144 145/46/144 146/45/144 
f 148/45/145 145/46/145 147/47/145 
f 142/42/146 149/37/146 150/41/146 
f 151/40/147 149/37/147 142/42/147 
f 144/41/148 151/40/148 142/42/148 
f 152/37/149 151/40/149 144/41/149 
f 151/40/150 153/39/150 149/37/150 
f 154/38/151 153/39/151 151/40/151 
f 152/37/152 154/38/152 151/40/152 
f 155/39/153 154/38/153 152/37/153 
f 154/38/154 156/48/154 153/39/154 
f 157/49/155 156/48/155 154/38/155 
f 155/39/156 157/49/156 154/38/156 
f 158/48/157 157/49/157 155/39/157 
f 159/51/158 160/49/159 161/52/160 
f 162/52/161 160/49/159 159/51/158 
f 148/45/162 143/44/162 145/46/162 
f 141/43/163 143/44/163 148/45/163 
f 157/49/164 163/50/164 156/48/164 
f 158/48/165 163/50/165 157/49/165 
f 164/53/166 165/47/166 166/54/166 
f 167/54/167 165/47/167 164/53/167 
f 168/44/168 167/54/168 164/53/168 
f 169/55/169 167/54/169 168/44/169 
f 170/42/170 169/55/170 168/44/170 
f 171/56/171 169/55/171 170/42/171 
f 172/57/172 171/56/172 170/42/172 
f 173/57/173 170/42/173 174/56/173 
f 175/40/174 170/42/174 173/57/174 
f 176/52/175 177/38/175 178/58/175 
f 160/49/159 177/38/176 161/52/160 
f 175/40/177 172/57/177 170/42/177 
f 179/58/178 172/57/178 175/40/178 
f 180/49/179 162/52/179 177/38/179 
f 166/54/180 168/44/180 164/53/180 
f 181/55/181 168/44/181 166/54/181 
f 181/55/182 170/42/182 168/44/182 
f 174/56/183 170/42/183 181/55/183 
# 0 polygons - 76 triangles

